<?xml version="1.0" encoding="utf-8"?>
<!-- Generator: Adobe Illustrator 25.3.1, SVG Export Plug-In . SVG Version: 6.00 Build 0)  -->
<svg version="1.1" id="레이어_1" xmlns="http://www.w3.org/2000/svg" xmlns:xlink="http://www.w3.org/1999/xlink" x="0px"
	 y="0px" viewBox="0 0 841.89 595.28" style="enable-background:new 0 0 841.89 595.28;" xml:space="preserve">
<style type="text/css">
	.st0{fill-rule:evenodd;clip-rule:evenodd;}
</style>
<g>
	<path class="st0" d="M732.11,323.66l0.08,1.89H712.1v-1.89c5.41,0,4.84-1.56,4.84-8.36v-37.47c0-2.87,0.08-4.92-0.25-5.82
		c-0.66-2.38-1.64-2.46-5-2.62v-1.72l20.33-0.08v1.8c-5.33,0-5.16,1.72-5.16,8.45v37.47C726.86,321.53,726.61,323.66,732.11,323.66
		L732.11,323.66z M672.01,326.2c-21.48,0-20.01-3.2-23.37-8.45c-4.02-6.23-7.46-15.09-14.92-15.09c-1.97,0.08-8.53,0-9.76,0
		c-3.44,0-5.41,0.16-7.63,0c0,6.56,0,10.58,0,17.05c0.08,4.02,2.05,4.35,5.41,4.35v2.13h-20.5v-2.13c2.79,0.08,5.08,0.16,5.08-2.95
		c0-1.07,0-6.72,0-10V279.8c0-3.69,0-2.46,0-4.35c0-4.18-1.48-5.25-5.08-5.25v-1.8h26.24c8.53,0,14.76-0.25,18.78,0.66
		c9.1,2.05,14.68,6.72,14.76,14.27c0,7.46-3.77,14.02-18.2,16.73c9.51,1.07,10.49,5.25,14.18,11.64
		c3.94,7.05,5.66,12.54,14.84,12.46C671.84,324.64,672.01,325.71,672.01,326.2L672.01,326.2z M616.34,296.93
		c7.46-0.08,18.37,0.49,25.01-1.23c3.77-1.39,8.77-3.53,8.77-11.64c0-5.74-2.87-7.63-6.31-9.26c-6.48-3.12-18.94-2.05-27.47-2.05
		V296.93L616.34,296.93z M545.33,311.44H510.9l-3.36,5.9c-1.23,2.21-2.05,3.69-2.05,4.59c0.08,2.87,1.48,3.12,4.67,3.03l-0.08,1.89
		h-17.79v-1.64c3.94-0.08,4.59-1.39,5.74-3.36c0.98-1.89,1.8-3.28,3.94-7.38l23.86-45.42h7.54l25.17,45.91
		c4.51,8.28,4.26,9.67,9.35,9.67v2.21h-21.32v-2.05c4.84-0.25,5.57-1.89,2.87-6.4L545.33,311.44L545.33,311.44z M542.3,304.97
		l-14.51-27.22l-13.77,27.22H542.3L542.3,304.97z M467.61,302.02c-5.9,0.08-6.31,0.33-6.15,6.07l0.16,8.28
		c-2.54,5.58-10.9,9.35-17.22,10.99c-4.26,1.15-9.92,2.05-15.41,2.05c-13.12,0-23.78-2.95-31.48-9.51
		c-6.4-5.41-10.33-12.3-10.33-19.84c0-9.18,3.94-16.56,11.89-22.63c7.87-6.07,17.63-9.18,29.68-9.1c4.59,0.08,9.51,0.57,14.35,1.72
		c4.43,1.07,9.1,2.71,12.87,5l3.03,12.87l-1.89,0.74c-1.89-3.94-6.97-9.27-11.73-11.89c-4.18-2.38-9.92-3.85-16.07-3.94
		c-7.13-0.08-14.35,2.46-18.61,5.41c-6.56,4.51-12.14,11.72-12.14,20.5c0,9.1,5.25,16.4,10.66,19.92
		c5.33,3.36,11.72,5.66,19.92,5.57c4.92-0.08,10.17-1.31,13.04-2.46c3.12-1.23,7.46-3.2,9.35-6.81l0.08-5
		c0-1.72,0.33-6.15-0.98-7.13c-1.39-0.9-2.95-0.82-5.25-0.82v-1.97c11.48,0,10.66,0,22.22,0V302.02L467.61,302.02z M327.73,270.53
		v1.8c-2.54,0.08-3.03-0.08-4.02,0.74c-0.66,0.66-1.15,1.48-1.15,4.18v44.69c5.49,0,8.04,0,12.22,0c2.46,0,12.79,0,14.92,0
		c7.13,0,11.64-3.12,13.61-6.31l1.88,0.74l-5.98,11.97h-51.57v-1.89c3.53-0.08,5-0.74,5-4.51c0-23.78,0-11.48,0-14.35V279.8
		c0-3.2,0-5-0.82-6.07c-0.82-1.15-1.64-1.39-4.51-1.39v-1.8H327.73L327.73,270.53z M220.98,271.02v2.13c-3.28,0-5.66,0.74-4.1,4.43
		c0.57,1.56,1.72,3.53,3.12,6.15l19.1,35.99c2.38-5.74,21.56-41.65,21.97-44.11c0.49-3.12-4.35-2.46-4.51-2.46v-2.05l17.22-0.08
		v2.13c-1.31,0-3.36-0.33-4.1,0.57c-1.23,1.56-4.35,8.12-8.61,16.32c-6.31,12.38-14.51,28.78-19.6,38.86h-8.28l-24.6-46.57
		c-1.97-3.85-3.61-7.63-4.92-8.44c-1.15-0.66-1.97-0.74-3.94-0.74v-2.13H220.98L220.98,271.02z M156.2,298.24
		c5,0.82,9.27,1.97,11.97,3.44c3.03,1.72,6.4,4.1,6.4,11.89c0.08,6.39-3.94,10.17-6.15,11.4c-5.74,4.51-19.76,4.76-28.29,4.76
		h-31.16v-1.97c2.62,0.08,3.36-0.16,4.43-1.39c0.74-0.9,0.49-4.26,0.49-7.54v-38.62c0-3.61-0.16-4.67-1.31-5.66
		c-1.23-0.98-1.97-0.9-4.02-0.9l0.08-1.89c20.17,0.08,28.29-0.16,40.5-0.08c8.2,0.41,18.86,3.53,18.86,13.36
		c0,3.77-1.72,7.54-4.35,9.43C161.12,296.44,160.22,296.85,156.2,298.24L156.2,298.24z M123.65,296.69c8.61,0,8.69,0,13.53,0
		c5.66,0,13.28-0.16,17.55-3.61c1.8-1.39,3.53-5.08,3.53-7.22c0-3.44-0.82-5.08-4.35-7.38c-3.61-2.3-11.15-1.89-17.63-1.89
		c-3.61,0-10.08,0-12.63,0V296.69L123.65,296.69z M123.65,323.33c5.58,0,10.08,0,16.32,0c11.73,0,23.61-0.66,23.61-10.17
		c0-3.44-2.13-6.31-4.35-7.95c-4.76-3.53-11.81-3.44-22.14-3.36c-4.43,0.08-9.02,0-13.45,0V323.33L123.65,323.33z"/>
</g>
</svg>
